<?xml version="1.0" encoding="utf-8"?>
<!-- Generator: Adobe Illustrator 19.1.0, SVG Export Plug-In . SVG Version: 6.00 Build 0)  -->
<svg version="1.1" id="Camada_1" xmlns="http://www.w3.org/2000/svg" xmlns:xlink="http://www.w3.org/1999/xlink" x="0px" y="0px"
	 viewBox="0 0 162.6667 45.3333" enable-background="new 0 0 162.6667 45.3333" xml:space="preserve">
<g>
	<g>
		<g>
			<path fill="#FFFFFF" d="M22.0417,24.5086c-0.7402,2.3862-1.832,4.1226-3.2754,5.208c-1.3125,0.9785-2.9707,1.4678-4.9756,1.4678
				h-0.0713c-2.3506-0.0117-4.0513-0.1729-5.1011-0.4834c-3.0542-0.8706-4.7725-2.7798-5.1543-5.7271
				c-0.0596-0.501-0.0894-0.978-0.0894-1.4316c0-3.3169,1.6763-5.5483,5.0293-6.6938c1.5269-0.5127,3.084-0.7695,4.6709-0.7695
				c0.4058,0,0.8174,0.0181,1.2349,0.0537c-3.6987-0.6084-6.0435-1.9688-7.0337-4.0806c-0.334-0.7158-0.501-1.4497-0.501-2.2012
				c0-1.0024,0.2983-2.0283,0.895-3.0786c0.7754-1.3599,2.0698-2.2129,3.8838-2.5591c0.5845-0.1074,1.4077-0.1611,2.4697-0.1611
				c0.5249,0,1.1152,0.0122,1.772,0.0356c1.6938,0.0835,3.0303,0.6265,4.0088,1.6289c0.835,0.8589,1.2529,1.8613,1.2529,3.0063
				v0.2686c0,0.1074-0.0122,0.2148-0.0361,0.3223c-0.0713,0.6924-0.3638,1.2769-0.877,1.7539
				c-0.5249,0.4653-1.1392,0.6982-1.8433,0.6982c-0.7515,0-1.396-0.2627-1.9331-0.7876c-0.5366-0.5371-0.8052-1.1812-0.8052-1.9331
				c0-0.3101,0.0537-0.6143,0.1611-0.9126c0.0117-0.0356,0.0298-0.0894,0.0537-0.1611c0.1313-0.3223,0.3281-0.6084,0.5903-0.8589
				V7.0946c0.0479-0.0356,0.0957-0.0776,0.1436-0.1255c0.2979-0.2505,0.6265-0.4351,0.9844-0.5547
				c0.0713-0.0474,0.1074-0.1011,0.1074-0.1611V6.2176c-0.0244-0.0952-0.1074-0.1611-0.251-0.1968
				c-0.1191-0.0362-0.2505-0.0537-0.3936-0.0537c-0.3223,0-0.7158,0.0957-1.1812,0.2861c-1.0381,0.4297-1.5928,0.6685-1.6646,0.7158
				c-0.7041,0.4775-1.1694,1.2529-1.396,2.3267c-0.0356,0.2031-0.0537,0.4116-0.0537,0.6265c0,0.8711,0.334,1.8853,1.0024,3.0425
				c0.9307,1.5991,2.0879,2.4463,3.4722,2.5415c0.4292,1.2651,0.8525,2.0703,1.2705,2.416
				c-1.6704,0.1074-3.2573,0.4717-4.7607,1.0918c-2.3979,0.9907-3.5972,2.3984-3.5972,4.2241c0,0.4771,0.083,0.9839,0.2505,1.521
				c0.2979,0.9785,0.7217,1.6943,1.2705,2.1475c0.561,0.4775,1.438,0.8179,2.6309,1.0205c0.3579,0.0596,0.7041,0.0894,1.0381,0.0894
				c1.3604,0,2.6011-0.501,3.7227-1.5034c0.6919-0.6201,1.2051-1.2705,1.5391-1.9507L22.0417,24.5086z"/>
			<path fill="#FFFFFF" d="M34.3908,24.6336c-0.0957,0.4653-0.1431,0.8711-0.1431,1.2173c0,0.7158,0.1904,1.1875,0.5728,1.4141
				c0.1309,0.0835,0.2798,0.125,0.4473,0.125c0.1309,0,0.2686-0.0239,0.4116-0.0713c0.3223-0.1074,0.6382-0.3164,0.9487-0.6265
				c0.5483-0.561,1.0615-1.4199,1.5391-2.5771h2.0762c-0.6924,2.1597-1.4741,3.8003-2.3447,4.9214
				c-0.7515,0.9668-1.6465,1.6348-2.6846,2.0044c-0.3462,0.1196-0.7637,0.1792-1.2529,0.1792c-0.3936,0-0.8291-0.0356-1.3066-0.1074
				c-1.4912-0.2266-2.4814-0.835-2.9707-1.8257c-0.8589,1.2529-2.1597,1.8794-3.9019,1.8794h-0.1431
				c-2.5176-0.0474-4.188-1.3838-5.0112-4.0088c-0.3579-1.1455-0.5366-2.3862-0.5366-3.7227c0-1.0024,0.1016-2.0581,0.3042-3.168
				c0.6201-3.4722,1.873-5.7451,3.7583-6.8188c0.7876-0.4531,1.7539-0.6802,2.8994-0.6802c0.2622,0,0.5249,0.0122,0.7876,0.0356
				c0.8467,0.0718,1.7476,0.5073,2.7021,1.3066l0.2866,0.2686l0.2861-1.6646h5.1904l-0.9844,6.2105L34.7843,22.2L34.3908,24.6336z
				 M29.6838,21.1082c0.1548-1.0977,0.2324-1.8315,0.2324-2.2017c0-0.0713-0.0059-0.125-0.0176-0.1611
				c-0.0601-0.6201-0.2568-1.0972-0.5908-1.4316c-0.334-0.3223-0.7695-0.4829-1.3062-0.4829c-0.1074,0-0.2148,0.0059-0.3223,0.0176
				c-0.8477,0.0957-1.5571,0.7695-2.1299,2.0225c-0.5132,1.1338-0.7695,2.4878-0.7695,4.0625c0,0.3579,0.0117,0.728,0.0356,1.1099
				c0.0479,0.5967,0.2329,1.1157,0.5547,1.5571c0.2866,0.3936,0.6445,0.6743,1.0742,0.8408
				c0.2383,0.084,0.4653,0.1255,0.6802,0.1255c0.1787,0,0.3579-0.0298,0.5366-0.0894c0.4175-0.1313,0.7339-0.4058,0.9487-0.8232
				C29.0632,24.7948,29.4211,23.2796,29.6838,21.1082z"/>
			<path fill="#FFFFFF" d="M38.0954,12.8216h1.9863c0.4175-2.5649,0.6626-4.0684,0.7339-4.5103
				c0.0596-0.3579,0.0894-0.7095,0.0894-1.0557c0-0.752-0.1372-1.4854-0.4116-2.2017c-0.2026-0.5127-0.4175-0.9185-0.644-1.2168
				h2.5771c1.6108,0,2.6846,0.6445,3.2217,1.9331c0.2505,0.5967,0.3755,1.2466,0.3755,1.9507c0,0.3462-0.0298,0.7041-0.0894,1.0737
				c-0.2266,1.3843-0.4473,2.7266-0.6621,4.0269h1.897l-0.3398,2.5234h-1.9868l-0.5728,3.6333l-0.5366,3.2573
				c-0.1909,1.1934-0.3223,1.9985-0.394,2.416c-0.0957,0.4653-0.1431,0.8711-0.1431,1.2173c0,0.7158,0.1909,1.187,0.5728,1.4136
				c0.1548,0.0957,0.3223,0.1431,0.501,0.1431c0.3818,0,0.8115-0.2383,1.2886-0.7158c0.5488-0.5605,1.062-1.4136,1.5396-2.5591
				l2.0581-0.0181c-1.229,3.854-2.8936,6.1509-4.9937,6.8906c-0.3696,0.1313-0.7993,0.1968-1.2886,0.1968
				c-0.4771,0-1.02-0.0654-1.6284-0.1968c-1.6465-0.3462-2.6016-1.1992-2.8638-2.5596c-0.0835-0.4175-0.125-0.9482-0.125-1.5928
				c0-1.5508,0.2207-3.7583,0.6621-6.6221c0.0596-0.6323,0.3101-2.2666,0.7515-4.9038h-1.915L38.0954,12.8216z"/>
			<path fill="#FFFFFF" d="M69.1471,15.7567c-0.6206,0.9189-1.3604,1.5396-2.2192,1.8613c0.6558,0.0244,1.3003,0.4116,1.9326,1.1636
				c0.668,0.7993,1.0024,2.0166,1.0024,3.6509c0,0.7759-0.0718,1.6406-0.2148,2.5952c-0.3818,2.4819-1.4082,4.2476-3.0781,5.2974
				c-0.8833,0.5493-2.5537,0.8413-5.0112,0.877c-0.7163,0.0122-3.6333,0.0181-8.752,0.0181l3.1499-19.7051
				c0.0117-0.3335,0.1431-1.2886,0.3936-2.8633c0.0835-0.5249,0.1255-1.0083,0.1255-1.4497c0-0.8472-0.1431-1.5688-0.4297-2.1655
				c-1.5986,1.8257-2.6606,3.144-3.1855,3.9551c-0.9307,1.4795-1.6465,3.2876-2.1475,5.4229
				c-0.1318,0.5728-0.1973,1.1216-0.1973,1.6465c0,0.9072,0.1973,1.748,0.5908,2.5239c0.3101,0.6201,0.6558,1.0796,1.0381,1.3779
				c-1.1694,1.3843-1.9927,3.0547-2.4697,5.0112c-1.5635-1.9927-2.3447-4.1938-2.3447-6.604c0-2.2671,0.6919-4.7129,2.0762-7.3379
				c1.4316-2.7207,3.1616-5.0474,5.1899-6.98h8.4121c2.2666,0,3.9849,0.3818,5.1543,1.1455
				c1.5986,1.0264,2.3979,2.7739,2.3979,5.2437c0,0.5132-0.0356,1.0503-0.1074,1.6108
				C70.2863,13.4959,69.8507,14.7308,69.1471,15.7567z M64.1896,24.4368c0.1191-0.7397,0.1787-1.4019,0.1787-1.9863
				c0-1.0142-0.1787-1.8018-0.5366-2.3628c-0.5015-0.7754-1.4976-1.3179-2.9893-1.6284h-0.2144l-1.6289,10.1118h0.1792
				c1.3838,0,2.4634-0.2686,3.2393-0.8052C63.3483,27.098,63.9391,25.9881,64.1896,24.4368z M65.4064,11.1395
				c0.0356-0.2505,0.0537-0.4951,0.0537-0.7339c0-0.8232-0.2031-1.5688-0.6084-2.2373c-0.5254-0.8589-1.271-1.4136-2.2373-1.6646
				l-1.521,9.1816l0.0356,0.0176c0.1309,0.0122,0.2622,0.0181,0.3936,0.0181c0.7275,0,1.4077-0.2563,2.0405-0.7695
				C64.5412,14.1639,65.1559,12.8934,65.4064,11.1395z"/>
			<path fill="#FFFFFF" d="M82.946,31.9359c-0.1074,0.4058-0.2207,0.8174-0.3398,1.2349c-0.0957,0.2983-0.1973,0.5967-0.3047,0.895
				c-0.5967,1.6582-1.3062,3.0005-2.1294,4.0269c-1.0024,1.2285-2.0825,1.855-3.2397,1.8794h-0.1611
				c-2.231,0-3.8296-0.7461-4.7964-2.2373c-0.1191-0.1792-0.2266-0.3643-0.3218-0.5547c-0.0601-0.1436-0.1016-0.2808-0.1255-0.4116
				c-0.0356-0.1074-0.0537-0.209-0.0537-0.3047c0-0.3218,0.1548-0.6323,0.4653-0.9302c0.3696-0.3223,0.8232-0.6206,1.3604-0.895
				c0.4888-0.2505,1.3062-0.6147,2.4517-1.0918c1.4438-0.5967,2.4756-1.0381,3.0962-1.3242
				c0.0479-0.3223,0.0957-0.6743,0.1436-1.0562l-0.6445-0.0356c-3.0186-0.0117-5.0176-0.8232-5.9956-2.4341
				c-0.4297-0.7158-0.6802-1.9688-0.7515-3.7583c0-0.1313,0.3872-2.6489,1.1631-7.5527c0.0596-0.3462,0.0894-0.6919,0.0894-1.0381
				c0-0.752-0.1372-1.4795-0.4116-2.1836c-0.1909-0.5127-0.4058-0.9126-0.644-1.1992h2.5591c1.5869,0,2.6191,0.6387,3.0962,1.915
				c0.1909,0.5254,0.2866,1.1157,0.2866,1.772c0,0.3818-0.0298,0.7817-0.0894,1.1992c-0.8711,5.4766-1.3188,8.5313-1.3423,9.1631
				v0.1074c0,0.8354,0.4053,1.3784,1.2168,1.6289c0.3101,0.0957,0.6265,0.1431,0.9487,0.1431c0.1074,0,0.2202-0.0059,0.3398-0.0181
				l0.4473-0.0356c0.4653-4.8799,0.71-7.439,0.7339-7.6777c0.4414-4.7964,0.7935-7.5288,1.0562-8.1973l5.0288-0.0176
				c-0.561,3.9849-1.0796,7.4873-1.5571,10.5054c-0.5366,3.2817-0.877,5.2861-1.02,6.0137
				c1.8135-1.4077,3.1978-2.9468,4.1523-4.6177c0.167-0.2861,0.2861-0.519,0.3579-0.6978h2.04
				c-0.7754,2.6011-2.022,4.5518-3.7402,5.8525l-0.5728,0.4829C85.3561,30.8084,84.4255,31.2918,82.946,31.9359z M78.5075,34.388
				c-0.8472,0.5728-1.4561,1.2285-1.8257,1.9688c-0.3579,0.7036-0.5786,1.396-0.6621,2.0757c0,0.3462,0.0835,0.519,0.2505,0.519
				c0.5728-0.0239,1.0498-0.5249,1.4316-1.5034C78.0124,36.6366,78.2804,35.6165,78.5075,34.388z"/>
			<path fill="#FFFFFF" d="M95.2946,5.1439c1.396-0.7754,2.7979-1.1636,4.2061-1.1636c0.5249,0,1.0557,0.0537,1.5928,0.1611
				c0.167-0.0117,0.3223-0.0176,0.4653-0.0176c1.7656,0,3.0605,0.501,3.8838,1.5029c0.6201,0.7637,0.9307,1.748,0.9307,2.9531
				c0,0.1431-0.0063,0.2925-0.0181,0.4478c0,0.1074-0.0117,0.2207-0.0356,0.3398c-0.0718,0.6919-0.3643,1.2705-0.877,1.7358
				c-0.5254,0.4775-1.1396,0.7163-1.8433,0.7163c-0.752,0-1.396-0.2686-1.9331-0.8057c-0.5254-0.5249-0.7876-1.1689-0.7876-1.9326
				c0-0.2983,0.0479-0.5967,0.1431-0.895c0.0122-0.0356,0.0298-0.0894,0.0537-0.1611h0.0181
				c0.1191-0.3223,0.3101-0.6084,0.5728-0.8589V7.1483h0.0181c0.0356-0.0474,0.0771-0.0894,0.125-0.1255
				c0.2983-0.2505,0.6265-0.4351,0.9844-0.5547c0.0835-0.0474,0.1255-0.1011,0.1255-0.1611V6.2533
				c-0.0361-0.083-0.1255-0.1431-0.2686-0.1787c-0.1196-0.0361-0.2505-0.0537-0.3936-0.0537c-0.3223,0-0.7163,0.0957-1.1816,0.2861
				c-1.3721,0.561-2.7021,1.7842-3.9907,3.6689c-0.8477,1.2529-1.5396,2.8521-2.0762,4.7964
				c-0.501,1.8496-0.752,3.6094-0.752,5.2798v0.4297c0.0479,2.3745,0.4238,4.1162,1.1279,5.2261
				c0.7988,1.3003,2.1714,2.0464,4.1162,2.2368c0.2505,0.0244,0.4951,0.0361,0.7339,0.0361c1.5034,0,2.8516-0.5132,4.0444-1.5396
				c0.6802-0.5962,1.1875-1.2168,1.5215-1.8608l1.5391-0.0537c-0.7397,2.3862-1.8315,4.1221-3.2749,5.208
				c-1.313,0.9785-2.9653,1.4673-4.9575,1.4673h-0.0718c-1.9927-0.0117-3.5615-0.1968-4.707-0.5547
				c-2.8638-0.9185-4.7129-2.7979-5.5483-5.6377c-0.5127-1.7539-0.7695-3.5259-0.7695-5.3154c0-1.9209,0.2925-3.8657,0.877-5.8345
				C90.0924,9.7674,92.2282,6.8621,95.2946,5.1439z"/>
			<path fill="#FFFFFF" d="M121.6393,24.3831c-0.4175,2.3867-1.605,4.2002-3.5615,5.4409c-1.4673,0.9307-3.0308,1.396-4.689,1.396
				c-0.2031,0-0.4116-0.0059-0.6265-0.0181c-2.2432-0.1548-4.0508-1.1987-5.4229-3.1318c-1.4434-2.0161-2.1655-4.7485-2.1655-8.1968
				c0-0.3818,0.0059-0.7754,0.0181-1.1812c0.2266-4.9517,0.9365-8.6387,2.1294-11.0605c1.1455-2.3384,2.7861-3.5854,4.9219-3.7407
				c0.2505-0.0239,0.4893-0.0356,0.7158-0.0356c2.625,0,4.3135,1.1694,5.0649,3.5078c0.2744,0.8589,0.4116,1.7656,0.4116,2.7202
				c0,1.5034-0.3462,3.1382-1.0381,4.9038c-1.4795,3.7583-3.46,7.0576-5.9419,9.8975c0.394,1.3599,1.2886,2.1772,2.6846,2.4517
				c0.334,0.0601,0.6626,0.0894,0.9844,0.0894c1.1812,0,2.3091-0.4233,3.3828-1.2705c0.6919-0.5371,1.2285-1.1094,1.6108-1.7183
				L121.6393,24.3831z M114.6955,14.0209c1.2407-2.6011,1.8613-4.647,1.8613-6.1387c0-0.7876-0.1733-1.4199-0.519-1.8975
				c-0.1553-0.2261-0.4116-0.3398-0.7695-0.3398h-0.1074c-0.4419,0.0122-0.895,0.1792-1.3604,0.501
				c-1.229,0.8354-2.0884,2.3091-2.5771,4.4209c-0.7998,3.4126-1.1992,6.3057-1.1992,8.6802v0.5728
				c0.9663-0.7158,1.9448-1.7241,2.9351-3.0249C113.7585,15.6971,114.3376,14.7723,114.6955,14.0209z"/>
			<path fill="#FFFFFF" d="M129.7648,24.222c-1.2168,3.8066-2.8638,6.0737-4.9395,6.8013
				c-0.3701,0.1313-0.8057,0.1968-1.3066,0.1968c-0.4653,0-0.9907-0.0596-1.5752-0.1792c-1.6348-0.3457-2.5771-1.1929-2.8276-2.541
				c-0.0713-0.3462-0.1074-0.8115-0.1074-1.396c0-1.7183,0.2925-4.4922,0.877-8.3223c0.2266-1.4678,0.4414-2.834,0.6445-4.0986
				l0.2686-1.6465h5.0825l-0.9482,6.085l-0.5371,3.2217c-0.1792,1.1694-0.3105,1.9629-0.3936,2.3804
				c-0.084,0.4536-0.1255,0.853-0.1255,1.1992c0,0.7158,0.1851,1.1812,0.5547,1.396c0.1553,0.0952,0.3159,0.1431,0.4834,0.1431
				c0.3936,0,0.8232-0.2329,1.2886-0.6982c0.5488-0.5483,1.0557-1.3896,1.521-2.5234L129.7648,24.222z M126.0778,10.2445
				c-0.5366,0.5371-1.1929,0.8052-1.9688,0.8052c-0.7637,0-1.4199-0.2681-1.9683-0.8052c-0.5371-0.5488-0.8057-1.2051-0.8057-1.9688
				c0-0.7754,0.2686-1.4316,0.8057-1.9687c0.5483-0.5483,1.2046-0.8232,1.9683-0.8232c0.7759,0,1.4321,0.2749,1.9688,0.8232
				c0.5488,0.5371,0.8232,1.1934,0.8232,1.9687C126.901,9.0394,126.6266,9.6956,126.0778,10.2445z"/>
			<path fill="#FFFFFF" d="M143.8327,24.4193c-0.7046,2.3862-1.8677,4.1519-3.4902,5.2974
				c-1.4199,1.0024-3.1318,1.5034-5.1367,1.5034h-0.0713c-2.0044-0.0117-3.7349-0.7876-5.1904-2.3267
				c-1.5151-1.5869-2.273-3.687-2.273-6.2998c0-0.5845,0.042-1.1929,0.1255-1.8257c0.3818-3.269,1.7837-5.5537,4.2061-6.8545
				c1.1929-0.6445,2.3442-0.9663,3.4541-0.9663h0.0537c0.167-0.0117,0.3398-0.0181,0.519-0.0181
				c1.6938,0,2.9287,0.5073,3.7046,1.5215c0.6201,0.7871,0.9307,1.8135,0.9307,3.0781c0,0.1313-0.0063,0.2627-0.0181,0.3936
				c-0.0117,0.1074-0.0298,0.2212-0.0537,0.3403c-0.0713,0.7041-0.3579,1.2944-0.8589,1.772
				c-0.501,0.4893-1.0981,0.7334-1.79,0.7334c-0.7275,0-1.3481-0.2744-1.8608-0.8232c-0.5132-0.5366-0.77-1.1929-0.77-1.9688
				c0-0.3101,0.042-0.6143,0.1255-0.9126c0.0117-0.0356,0.0356-0.0894,0.0718-0.1611v-0.0181
				c0.1309-0.3218,0.3218-0.6143,0.5728-0.877c0.0356-0.0474,0.0771-0.0894,0.125-0.125c0.2866-0.2622,0.6084-0.4531,0.9663-0.5728
				c0.0718-0.0474,0.1074-0.1011,0.1074-0.1611v-0.0537c-0.0356-0.0835-0.1191-0.1489-0.2505-0.1968
				c-0.1191-0.0356-0.2446-0.0537-0.376-0.0537c-0.3101,0-0.6919,0.0957-1.145,0.2861c-0.9429,0.418-1.6943,1.2412-2.2554,2.4702
				c-0.4893,1.1094-0.7339,2.3745-0.7339,3.7939c0,0.1909,0.0059,0.394,0.0181,0.6084c0.0596,1.2529,0.3403,2.3149,0.8413,3.186
				c0.668,1.1812,1.7061,1.9033,3.1143,2.1655c0.4053,0.0835,0.7988,0.125,1.1812,0.125c1.2407,0,2.3384-0.4233,3.293-1.2705
				c0.6323-0.5488,1.0854-1.1274,1.3604-1.7358L143.8327,24.4193z"/>
			<path fill="#FFFFFF" d="M160.3693,24.0789c-1.229,3.8657-2.8994,6.1689-5.0112,6.9087
				c-0.4292,0.1548-0.9248,0.2324-1.4854,0.2324c-0.4058,0-0.8472-0.0415-1.3242-0.1255c-1.5869-0.2739-2.5654-1.0615-2.9351-2.3623
				c-0.1074-0.3579-0.1611-0.8472-0.1611-1.4673c0-1.4917,0.292-3.7227,0.877-6.6938c0.2744-1.4316,0.4116-2.4219,0.4116-2.9707
				v-0.0718c-0.0244-0.5728-0.2212-0.9067-0.5908-1.0024c-0.0713-0.0234-0.1494-0.0356-0.2324-0.0356
				c-0.4297,0-1.0322,0.2686-1.8076,0.8057l-2.3091,13.9238h-4.8501l1.7002-10.8276l1.915-12.1523
				c0.0596-0.3579,0.0898-0.71,0.0898-1.0562c0-0.7515-0.1377-1.4854-0.4116-2.2012c-0.2031-0.5249-0.4238-0.9307-0.6626-1.2173
				h2.5952c1.6108,0,2.6548,0.6445,3.1318,1.9331c0.2031,0.5254,0.3047,1.1157,0.3047,1.772c0,0.3936-0.0361,0.8115-0.1074,1.2524
				c-0.2749,1.6826-0.5073,3.1323-0.6982,4.3491l-0.1074,0.6621c0.7637-1.8013,1.6226-3.8354,2.5771-6.1025
				c0.2148-0.6563,0.5967-1.3066,1.1455-1.9512c1.0737-1.2764,2.4521-1.915,4.1343-1.915h0.0894
				c1.2412,0.0122,2.1299,0.6509,2.667,1.915c0.2622,0.6089,0.3936,1.2349,0.3936,1.8794c0,0.6323-0.1313,1.2769-0.3936,1.9331
				c-0.1792,0.5723-0.5132,1.0439-1.0024,1.4136c-0.501,0.3701-1.062,0.5547-1.6821,0.5547c-0.7759,0-1.4321-0.2739-1.9688-0.8232
				c-0.5488-0.5483-0.8232-1.2104-0.8232-1.9863c0-0.5967,0.1787-1.1392,0.5366-1.6289c0.0479-0.1309,0.0718-0.2383,0.0718-0.3218
				c0-0.1909-0.0957-0.3105-0.2861-0.3579h-0.0361c-0.2983,0-0.8115,0.9482-1.5391,2.8452
				c-0.501,1.1934-1.0557,2.5298-1.6646,4.0093c0.5845-0.2622,1.1333-0.394,1.6465-0.394c0.0718,0,0.1494,0.0063,0.2329,0.0181
				c1.5269,0.1196,2.4458,0.9248,2.7563,2.416c0.0952,0.4297,0.1431,0.937,0.1431,1.5215c0,1.3843-0.2568,3.1919-0.7695,5.4229
				c-0.1909,1.1934-0.3223,1.9985-0.394,2.416c-0.0957,0.4653-0.1431,0.877-0.1431,1.2349c0,0.7158,0.1909,1.1875,0.5728,1.4141
				c0.1548,0.0957,0.3159,0.1431,0.4834,0.1431c0.3936,0,0.8291-0.2441,1.3062-0.7339c0.561-0.5483,1.0801-1.4019,1.5571-2.5591
				L160.3693,24.0789z"/>
		</g>
	</g>
</g>
</svg>
